<svg xmlns="http://www.w3.org/2000/svg" viewBox="0 0 512 512" fill="currentColor"><path d="M256 365.2c-35.9 0-65.2-29.2-65.2-65.2s29.2-65.2 65.2-65.2 65.2 29.2 65.2 65.2-29.3 65.2-65.2 65.2zm0-111.9c-25.8 0-46.7 20.9-46.7 46.7s20.9 46.7 46.7 46.7 46.7-20.9 46.7-46.7-20.9-46.7-46.7-46.7zM142.1 365.2c-35.9 0-65.2-29.2-65.2-65.2s29.2-65.2 65.2-65.2 65.2 29.2 65.2 65.2-29.2 65.2-65.2 65.2zm0-111.9c-25.8 0-46.7 20.9-46.7 46.7s20.9 46.7 46.7 46.7 46.7-20.9 46.7-46.7-20.9-46.7-46.7-46.7zM369.9 365.2c-35.9 0-65.2-29.2-65.2-65.2s29.2-65.2 65.2-65.2 65.2 29.2 65.2 65.2-29.2 65.2-65.2 65.2zm0-111.9c-25.8 0-46.7 20.9-46.7 46.7s20.9 46.7 46.7 46.7 46.7-20.9 46.7-46.7-20.9-46.7-46.7-46.7z"/></svg>
